 0
SECTION
 2
ENTITIES
  0
POLYLINE
 8
Group#4
 66
     1
70
    8
 10
0.0
 20
 0.0
 30
0.0
  0
VERTEX
  8
MY3DLAYER
10
9.73016203431471
20
51.5872670718007
30
-4.52065396126057e-033
 70
     32
  0
VERTEX
  8
MY3DLAYER
10
12.3301620343147
20
51.5872670718007
30
-5.35515520947035e-033
 70
     32
  0
VERTEX
  8
MY3DLAYER
10
12.3301620343147
20
34.1872670718007
30
-8.29075806177084e-033
 70
     32
  0
VERTEX
  8
MY3DLAYER
10
9.73016203431471
20
34.1872670718007
30
-8.88014789309039e-033
 70
     32
  0
VERTEX
  8
MY3DLAYER
10
9.73016203431471
20
51.5872670718007
30
-4.52065396126057e-033
 70
     32
  0
SEQEND
  0
LINE
 8
Group#1
10
11.8301620343147
20
51.0872670718007
30
-1.58926117126409e-033
11
10.2301620343147
21
51.0872670718007
31
-1.95196260592228e-033
  0
LINE
 8
Group#1
10
10.2301620343147
20
34.6872670718007
30
-1.95196260592228e-033
11
11.8301620343147
21
34.6872670718007
31
-1.58926117126409e-033
  0
LINE
 8
Group#1
10
18.5301620343147
20
25.8872670718007
30
-7.0448913632927e-035
11
18.5301620343147
21
37.6336956432293
31
-7.0448913632927e-035
  0
LINE
 8
Group#1
10
18.5301620343147
20
59.8872670718007
30
-7.0448913632927e-035
11
89.9301620343147
21
59.8872670718007
31
1.61151026079888e-032
  0
LINE
 8
Group#1
10
89.9301620343147
20
59.8872670718007
30
1.61151026079888e-032
11
89.9301620343147
21
25.8872670718007
31
1.61151026079888e-032
  0
LINE
 8
Group#1
10
89.9301620343147
20
25.8872670718007
30
1.61151026079888e-032
11
18.5301620343147
21
25.8872670718007
31
-7.0448913632927e-035
  0
LINE
 8
Group#1
10
90.8301620343147
20
24.3872670718007
30
1.6319122164984e-032
11
11.8301620343147
21
24.3872670718007
31
-1.58926117126409e-033
  0
LINE
 8
Group#1
10
11.8301620343147
20
24.3872670718007
30
-1.58926117126409e-033
11
11.8301620343147
21
34.6872670718007
31
-1.58926117126409e-033
  0
LINE
 8
Group#1
10
11.8301620343147
20
51.0872670718007
30
-1.58926117126409e-033
11
11.8301620343147
21
61.3872670718007
31
-1.58926117126409e-033
  0
LINE
 8
Group#1
10
11.8301620343147
20
61.3872670718007
30
-1.58926117126409e-033
11
90.8301620343147
21
61.3872670718007
31
1.6319122164984e-032
  0
LINE
 8
Group#1
10
90.8301620343147
20
61.3872670718007
30
1.6319122164984e-032
11
90.8301620343147
21
24.3872670718007
31
1.6319122164984e-032
  0
LINE
 8
Group#1
10
10.2301620343147
20
51.0872670718007
30
-1.95196260592228e-033
11
10.2301620343147
21
34.6872670718007
31
-1.95196260592228e-033
  0
LINE
 8
Group#1
10
11.8301620343147
20
34.6872670718007
30
-1.58926117126409e-033
11
16.0301620343147
21
34.6872670718007
31
-6.37169905286343e-034
  0
LINE
 8
Group#1
10
24.2301620343147
20
37.9872670718007
30
1.22167494733688e-033
11
18.8301620343147
21
37.9872670718007
31
-2.44239463451359e-036
  0
LINE
 8
Group#1
10
11.8301620343147
20
51.0872670718007
30
-1.58926117126409e-033
11
11.8301620343147
21
34.6872670718007
31
-1.58926117126409e-033
  0
LINE
 8
Group#1
10
18.8301620343147
20
50.4872670718007
30
-2.44239463451359e-036
11
24.2301620343147
21
50.4872670718007
31
1.22167494733688e-033
  0
LINE
 8
Group#1
10
18.8301620343147
20
37.9872670718007
30
-2.44239463451359e-036
11
18.5301620343147
21
37.6336956432293
31
-7.0448913632927e-035
  0
LINE
 8
Group#1
10
24.2301620343147
20
37.9872670718007
30
1.22167494733688e-033
11
24.2301620343147
21
50.4872670718007
31
1.22167494733688e-033
  0
LINE
 8
Group#1
10
16.0301620343147
20
51.0872670718007
30
-6.37169905286343e-034
11
11.8301620343147
21
51.0872670718007
31
-1.58926117126409e-033
  0
LINE
 8
Group#1
10
16.0301620343147
20
51.0872670718007
30
-6.37169905286343e-034
11
18.5301620343147
21
50.5515527860864
31
-7.0448913632927e-035
  0
LINE
 8
Group#1
10
18.5301620343147
20
50.5515527860864
30
-7.0448913632927e-035
11
18.5301620343147
21
59.8872670718007
31
-7.0448913632927e-035
  0
LINE
 8
Group#1
10
18.5301620343147
20
37.6336956432293
30
-7.0448913632927e-035
11
18.5301620343147
21
50.5515527860864
31
-7.0448913632927e-035
  0
LINE
 8
Group#1
10
18.5301620343147
20
37.6336956432293
30
-7.0448913632927e-035
11
16.0301620343147
21
34.6872670718007
31
-6.37169905286343e-034
  0
LINE
 8
Group#1
10
18.5301620343147
20
50.5515527860864
30
-7.0448913632927e-035
11
18.8301620343147
21
50.4872670718007
31
-2.44239463451359e-036
 0
ENDSEC
 0
EOF
