 0
SECTION
 2
ENTITIES
  0
LINE
 8
Group#1
10
33.8289987910036
20
5.47212192529471
30
0.0
11
33.8289987910036
21
-4.5278780747053
31
0.0
  0
LINE
 8
Group#1
10
-5.17100120899635
20
5.47212192529471
30
0.0
11
4.82899879100365
21
5.47212192529471
31
0.0
  0
LINE
 8
Group#1
10
23.8289987910036
20
-0.897878074705279
30
0.0
11
4.97899879100365
21
-0.199878074705283
31
0.0
  0
LINE
 8
Group#1
10
-24.0210012089963
20
4.42212192529471
30
0.0
11
-24.0210012089963
21
4.62212192529471
31
0.0
  0
LINE
 8
Group#1
10
-24.0210012089963
20
0.0221219252947058
30
0.0
11
-5.17100120899635
21
0.720121925294701
31
0.0
  0
LINE
 8
Group#1
10
4.97899879100365
20
4.4001219252947
30
0.0
11
4.97899879100365
21
4.60012192529471
31
0.0
  0
LINE
 8
Group#1
10
4.82899879100365
20
5.47212192529471
30
0.0
11
4.82899879100365
21
4.14832192529471
31
0.0
  0
LINE
 8
Group#1
10
4.97899879100365
20
-2.49987807470528
30
0.0
11
4.97899879100365
21
-2.29987807470528
31
0.0
  0
LINE
 8
Group#1
10
4.97899879100365
20
-2.29987807470528
30
0.0
11
23.8289987910036
21
-1.60187807470528
31
0.0
  0
LINE
 8
Group#1
10
4.97899879100365
20
-0.199878074705283
30
0.0
11
4.97899879100365
21
0.000121925294716174
31
0.0
  0
LINE
 8
Group#1
10
23.8289987910036
20
-3.1978780747053
30
0.0
11
4.97899879100365
21
-2.49987807470528
31
0.0
  0
LINE
 8
Group#1
10
4.97899879100365
20
0.000121925294716174
30
0.0
11
23.8289987910036
21
0.698121925294712
31
0.0
  0
LINE
 8
Group#1
10
4.97899879100365
20
4.60012192529471
30
0.0
11
23.8289987910036
21
5.2983219252947
31
0.0
  0
LINE
 8
Group#1
10
-5.17100120899635
20
3.02022192529471
30
0.0
11
-5.17100120899635
21
3.72402192529472
31
0.0
  0
LINE
 8
Group#1
10
4.97899879100365
20
2.30012192529471
30
0.0
11
23.8289987910036
21
2.9983219252947
31
0.0
  0
LINE
 8
Group#1
10
23.8289987910036
20
0.698121925294712
30
0.0
11
23.8289987910036
21
1.40212192529471
31
0.0
  0
LINE
 8
Group#1
10
23.8289987910036
20
3.7020219252947
30
0.0
11
4.97899879100365
21
4.4001219252947
31
0.0
  0
LINE
 8
Group#1
10
23.8289987910036
20
5.47212192529471
30
0.0
11
33.8289987910036
21
5.47212192529471
31
0.0
  0
LINE
 8
Group#1
10
23.8289987910036
20
5.2983219252947
30
0.0
11
23.8289987910036
21
5.47212192529471
31
0.0
  0
LINE
 8
Group#1
10
4.97899879100365
20
2.1001219252947
30
0.0
11
4.97899879100365
21
2.30012192529471
31
0.0
  0
LINE
 8
Group#1
10
-5.17100120899635
20
3.72402192529472
30
0.0
11
-24.0210012089963
21
4.42212192529471
31
0.0
  0
LINE
 8
Group#1
10
23.8289987910036
20
-1.60187807470528
30
0.0
11
23.8289987910036
21
-0.897878074705279
31
0.0
  0
LINE
 8
Group#1
10
33.8289987910036
20
-4.5278780747053
30
0.0
11
23.8289987910036
21
-4.5278780747053
31
0.0
  0
LINE
 8
Group#1
10
-24.0210012089963
20
4.62212192529471
30
0.0
11
-5.17100120899635
21
5.3202219252947
31
0.0
  0
LINE
 8
Group#1
10
-5.17100120899635
20
0.720121925294701
30
0.0
11
-5.17100120899635
21
1.42412192529471
31
0.0
  0
LINE
 8
Group#1
10
-5.17100120899635
20
1.42412192529471
30
0.0
11
-24.0210012089963
21
2.12212192529471
31
0.0
  0
LINE
 8
Group#1
10
-24.0210012089963
20
2.12212192529471
30
0.0
11
-24.0210012089963
21
2.32212192529471
31
0.0
  0
LINE
 8
Group#1
10
23.8289987910036
20
-4.5278780747053
30
0.0
11
23.8289987910036
21
-3.1978780747053
31
0.0
  0
LINE
 8
Group#1
10
-24.0210012089963
20
2.32212192529471
30
0.0
11
-5.17100120899635
21
3.02022192529471
31
0.0
  0
LINE
 8
Group#1
10
-5.17100120899635
20
5.3202219252947
30
0.0
11
-5.17100120899635
21
5.47212192529471
31
0.0
  0
LINE
 8
Group#1
10
23.8289987910036
20
1.40212192529471
30
0.0
11
4.97899879100365
21
2.1001219252947
31
0.0
  0
LINE
 8
Group#1
10
23.8289987910036
20
2.9983219252947
30
0.0
11
23.8289987910036
21
3.7020219252947
31
0.0
  0
LINE
 8
Group#1
10
4.82899879100365
20
-2.04787807470529
30
0.0
11
4.82899879100365
21
-2.75187807470529
31
0.0
  0
LINE
 8
Group#1
10
-5.17100120899635
20
-1.57987807470529
30
0.0
11
-5.17100120899635
21
-0.875878074705289
31
0.0
  0
LINE
 8
Group#1
10
-5.17100120899635
20
-0.875878074705289
30
0.0
11
-24.0210012089963
21
-0.177878074705294
31
0.0
  0
LINE
 8
Group#1
10
4.82899879100365
20
2.55202192529472
30
0.0
11
4.82899879100365
21
1.84812192529471
31
0.0
  0
LINE
 8
Group#1
10
-24.0210012089963
20
-0.177878074705294
30
0.0
11
-24.0210012089963
21
0.0221219252947058
31
0.0
  0
LINE
 8
Group#1
10
-24.1710012089963
20
0.27412192529472
30
0.0
11
-24.1710012089963
21
-0.429878074705308
31
0.0
  0
LINE
 8
Group#1
10
-5.32100120899634
20
3.2721219252947
30
0.0
11
-24.1710012089963
21
2.57402192529471
31
0.0
  0
LINE
 8
Group#1
10
23.6789987910037
20
3.45012192529471
30
0.0
11
23.6789987910037
21
3.25012192529471
31
0.0
  0
LINE
 8
Group#1
10
4.82899879100365
20
-2.75187807470529
30
0.0
11
23.6789987910037
21
-3.44987807470529
31
0.0
  0
LINE
 8
Group#1
10
-24.1710012089963
20
-2.02587807470528
30
0.0
11
-24.1710012089963
21
-2.7298780747053
31
0.0
  0
LINE
 8
Group#1
10
23.6789987910037
20
3.25012192529471
30
0.0
11
4.82899879100365
21
2.55202192529472
31
0.0
  0
LINE
 8
Group#1
10
4.82899879100365
20
1.84812192529471
30
0.0
11
23.6789987910037
21
1.1501219252947
31
0.0
  0
LINE
 8
Group#1
10
-5.17100120899635
20
-3.17587807470529
30
0.0
11
-24.0210012089963
21
-2.47787807470529
31
0.0
  0
LINE
 8
Group#1
10
-24.0210012089963
20
-2.47787807470529
30
0.0
11
-24.0210012089963
21
-2.27787807470529
31
0.0
  0
LINE
 8
Group#1
10
23.6789987910037
20
-3.64987807470529
30
0.0
11
4.82899879100365
21
-4.34787807470528
31
0.0
  0
LINE
 8
Group#1
10
-24.1710012089963
20
-4.5278780747053
30
0.0
11
-34.1710012089963
21
-4.5278780747053
31
0.0
  0
LINE
 8
Group#1
10
-5.32100120899634
20
3.4721219252947
30
0.0
11
-5.32100120899634
21
3.2721219252947
31
0.0
  0
LINE
 8
Group#1
10
-5.32100120899634
20
1.1721219252947
30
0.0
11
-5.32100120899634
21
0.972121925294704
31
0.0
  0
LINE
 8
Group#1
10
4.82899879100365
20
4.14832192529471
30
0.0
11
23.6789987910037
21
3.45012192529471
31
0.0
  0
LINE
 8
Group#1
10
23.6789987910037
20
0.950121925294714
30
0.0
11
4.82899879100365
21
0.252121925294708
31
0.0
  0
LINE
 8
Group#1
10
-24.1710012089963
20
-2.7298780747053
30
0.0
11
-5.32100120899634
21
-3.42787807470528
31
0.0
  0
LINE
 8
Group#1
10
-5.32100120899634
20
-3.42787807470528
30
0.0
11
-5.32100120899634
21
-3.6278780747053
31
0.0
  0
LINE
 8
Group#1
10
-24.1710012089963
20
5.47212192529471
30
0.0
11
-24.1710012089963
21
4.17022192529472
31
0.0
  0
LINE
 8
Group#1
10
-24.1710012089963
20
4.17022192529472
30
0.0
11
-5.32100120899634
21
3.4721219252947
31
0.0
  0
LINE
 8
Group#1
10
-24.1710012089963
20
1.87012192529471
30
0.0
11
-5.32100120899634
21
1.1721219252947
31
0.0
  0
LINE
 8
Group#1
10
-24.1710012089963
20
2.57402192529471
30
0.0
11
-24.1710012089963
21
1.87012192529471
31
0.0
  0
LINE
 8
Group#1
10
-24.1710012089963
20
-0.429878074705308
30
0.0
11
-5.32100120899634
21
-1.12787807470528
31
0.0
  0
LINE
 8
Group#1
10
-5.32100120899634
20
-3.6278780747053
30
0.0
11
-24.1710012089963
21
-4.32587807470529
31
0.0
  0
LINE
 8
Group#1
10
-34.1710012089963
20
-4.5278780747053
30
0.0
11
-34.1710012089963
21
5.47212192529471
31
0.0
  0
LINE
 8
Group#1
10
-5.32100120899634
20
-1.12787807470528
30
0.0
11
-5.32100120899634
21
-1.3278780747053
31
0.0
  0
LINE
 8
Group#1
10
4.82899879100365
20
-0.451878074705297
30
0.0
11
23.6789987910037
21
-1.14987807470529
31
0.0
  0
LINE
 8
Group#1
10
23.6789987910037
20
-1.14987807470529
30
0.0
11
23.6789987910037
21
-1.34987807470529
31
0.0
  0
LINE
 8
Group#1
10
-5.32100120899634
20
-1.3278780747053
30
0.0
11
-24.1710012089963
21
-2.02587807470528
31
0.0
  0
LINE
 8
Group#1
10
-34.1710012089963
20
5.47212192529471
30
0.0
11
-24.1710012089963
21
5.47212192529471
31
0.0
  0
LINE
 8
Group#1
10
-24.1710012089963
20
-4.32587807470529
30
0.0
11
-24.1710012089963
21
-4.5278780747053
31
0.0
  0
LINE
 8
Group#1
10
23.6789987910037
20
-1.34987807470529
30
0.0
11
4.82899879100365
21
-2.04787807470529
31
0.0
  0
LINE
 8
Group#1
10
23.6789987910037
20
-3.44987807470529
30
0.0
11
23.6789987910037
21
-3.64987807470529
31
0.0
  0
LINE
 8
Group#1
10
4.82899879100365
20
-4.5278780747053
30
0.0
11
-5.17100120899635
21
-4.5278780747053
31
0.0
  0
LINE
 8
Group#1
10
4.82899879100365
20
0.252121925294708
30
0.0
11
4.82899879100365
21
-0.451878074705297
31
0.0
  0
LINE
 8
Group#1
10
23.6789987910037
20
1.1501219252947
30
0.0
11
23.6789987910037
21
0.950121925294714
31
0.0
  0
LINE
 8
Group#1
10
4.82899879100365
20
-4.34787807470528
30
0.0
11
4.82899879100365
21
-4.5278780747053
31
0.0
  0
LINE
 8
Group#1
10
-5.17100120899635
20
-4.5278780747053
30
0.0
11
-5.17100120899635
21
-3.17587807470529
31
0.0
  0
LINE
 8
Group#1
10
-24.0210012089963
20
-2.27787807470529
30
0.0
11
-5.17100120899635
21
-1.57987807470529
31
0.0
  0
LINE
 8
Group#1
10
-5.32100120899634
20
0.972121925294704
30
0.0
11
-24.1710012089963
21
0.27412192529472
31
0.0
 0
ENDSEC
 0
EOF
