 0
SECTION
 2
ENTITIES
  0
LINE
 8
Group#1
10
7.60000000000001
20
65.3
30
0.0
11
6.00000000000001
21
65.3
31
0.0
  0
LINE
 8
Group#1
10
7.60000000000001
20
81.7
30
0.0
11
7.60000000000001
21
65.3
31
0.0
  0
LINE
 8
Group#1
10
6.00000000000001
20
81.7
30
0.0
11
7.60000000000001
21
81.7
31
0.0
  0
LINE
 8
Group#1
10
6.00000000000001
20
65.3
30
0.0
11
6.00000000000001
21
81.7
31
0.0
  0
LINE
 8
Group#1
10
14.3
20
90.5
30
0.0
11
14.3
21
56.5
31
0.0
  0
LINE
 8
Group#1
10
14.3
20
56.5
30
0.0
11
85.7
21
56.5
31
0.0
  0
LINE
 8
Group#1
10
85.7
20
56.5
30
0.0
11
85.7
21
90.5
31
0.0
  0
LINE
 8
Group#1
10
85.7
20
90.5
30
0.0
11
14.3
21
90.5
31
0.0
  0
LINE
 8
Group#1
10
86.6
20
92.0
30
0.0
11
7.60000000000001
21
92.0
31
0.0
  0
LINE
 8
Group#1
10
7.60000000000001
20
92.0
30
0.0
11
7.60000000000001
21
81.7
31
0.0
  0
LINE
 8
Group#1
10
7.60000000000001
20
65.3
30
0.0
11
7.60000000000001
21
55.0
31
0.0
  0
LINE
 8
Group#1
10
7.60000000000001
20
55.0
30
0.0
11
86.6
21
55.0
31
0.0
  0
LINE
 8
Group#1
10
86.6
20
55.0
30
0.0
11
86.6
21
92.0
31
0.0
  0
LINE
 8
Layer0
10
93.8268343236509
20
99.2387953251129
30
0.0
11
92.5881904510252
21
99.6592582628907
31
0.0
  0
LINE
 8
Layer0
10
3.9123857099128
20
97.9335334029123
30
0.0
11
2.92893218813452
21
97.0710678118655
31
0.0
  0
LINE
 8
Layer0
10
2.92893218813452
20
97.0710678118655
30
0.0
11
2.06646659708765
21
96.0876142900872
31
0.0
  0
LINE
 8
Layer0
10
5.0
20
98.6602540378444
30
0.0
11
3.9123857099128
21
97.9335334029123
31
0.0
  0
LINE
 8
Layer0
10
92.5881904510252
20
99.6592582628907
30
0.0
11
91.3052619222005
21
99.9144486137381
31
0.0
  0
LINE
 8
Layer0
10
95.0
20
98.6602540378444
30
0.0
11
93.8268343236509
21
99.2387953251129
31
0.0
  0
LINE
 8
Layer0
10
96.0876142900872
20
97.9335334029123
30
0.0
11
95.0
21
98.6602540378444
31
0.0
  0
LINE
 8
Layer0
10
100.0
20
90.0
30
0.0
11
100.0
21
9.99999999999999
31
0.0
  0
LINE
 8
Layer0
10
91.3052619222005
20
99.9144486137381
30
0.0
11
90.0
21
100.0
31
0.0
  0
LINE
 8
Layer0
10
97.0710678118655
20
97.0710678118655
30
0.0
11
96.0876142900872
21
97.9335334029123
31
0.0
  0
LINE
 8
Layer0
10
8.69473807779949
20
99.9144486137381
30
0.0
11
7.4118095489748
21
99.6592582628907
31
0.0
  0
LINE
 8
Layer0
10
7.4118095489748
20
99.6592582628907
30
0.0
11
6.17316567634911
21
99.2387953251129
31
0.0
  0
LINE
 8
Layer0
10
6.17316567634911
20
99.2387953251129
30
0.0
11
5.0
21
98.6602540378444
31
0.0
  0
LINE
 8
Layer0
10
0.0
20
10.0
30
0.0
11
0.0855513862618904
21
8.69473807779948
31
0.0
  0
LINE
 8
Layer0
10
0.340741737109318
20
7.41180954897479
30
0.0
11
0.761204674887127
21
6.1731656763491
31
0.0
  0
LINE
 8
Layer0
10
0.761204674887127
20
6.1731656763491
30
0.0
11
1.33974596215561
21
5.0
31
0.0
  0
LINE
 8
Layer0
10
0.761204674887127
20
93.8268343236509
30
0.0
11
0.340741737109318
21
92.5881904510252
31
0.0
  0
LINE
 8
Layer0
10
0.340741737109318
20
92.5881904510252
30
0.0
11
0.0855513862618904
21
91.3052619222005
31
0.0
  0
LINE
 8
Layer0
10
1.33974596215561
20
5.0
30
0.0
11
2.06646659708765
21
3.91238570991279
31
0.0
  0
LINE
 8
Layer0
10
2.06646659708765
20
3.91238570991279
30
0.0
11
2.92893218813452
21
2.92893218813452
31
0.0
  0
LINE
 8
Layer0
10
2.92893218813452
20
2.92893218813452
30
0.0
11
3.9123857099128
21
2.06646659708765
31
0.0
  0
LINE
 8
Layer0
10
1.33974596215561
20
95.0
30
0.0
11
0.761204674887127
21
93.8268343236509
31
0.0
  0
LINE
 8
Layer0
10
2.06646659708765
20
96.0876142900872
30
0.0
11
1.33974596215561
21
95.0
31
0.0
  0
LINE
 8
Layer0
10
10.0
20
100.0
30
0.0
11
90.0
21
100.0
31
0.0
  0
LINE
 8
Layer0
10
0.0855513862618904
20
8.69473807779948
30
0.0
11
0.340741737109318
21
7.41180954897479
31
0.0
  0
LINE
 8
Layer0
10
0.0855513862618904
20
91.3052619222005
30
0.0
11
0.0
21
90.0
31
0.0
  0
LINE
 8
Layer0
10
5.0
20
1.33974596215561
30
0.0
11
6.17316567634911
21
0.761204674887132
31
0.0
  0
LINE
 8
Layer0
10
97.0710678118655
20
2.92893218813452
30
0.0
11
97.9335334029123
21
3.91238570991279
31
0.0
  0
LINE
 8
Layer0
10
92.5881904510252
20
0.340741737109319
30
0.0
11
93.8268343236509
21
0.761204674887134
31
0.0
  0
LINE
 8
Layer0
10
0.0
20
10.0
30
0.0
11
0.0
21
90.0
31
0.0
  0
LINE
 8
Layer0
10
3.9123857099128
20
2.06646659708765
30
0.0
11
5.0
21
1.33974596215561
31
0.0
  0
LINE
 8
Layer0
10
8.69473807779949
20
0.085551386261896
30
0.0
11
10.0
21
1.40998324127395e-015
31
0.0
  0
LINE
 8
Layer0
10
91.3052619222005
20
0.085551386261896
30
0.0
11
92.5881904510252
21
0.340741737109319
31
0.0
  0
LINE
 8
Layer0
10
6.17316567634911
20
0.761204674887132
30
0.0
11
7.41180954897479
21
0.340741737109318
31
0.0
  0
LINE
 8
Layer0
10
93.8268343236509
20
0.761204674887134
30
0.0
11
95.0
21
1.33974596215561
31
0.0
  0
LINE
 8
Layer0
10
90.0
20
0.0
30
0.0
11
91.3052619222005
21
0.085551386261896
31
0.0
  0
LINE
 8
Layer0
10
95.0
20
1.33974596215561
30
0.0
11
96.0876142900872
21
2.06646659708765
31
0.0
  0
LINE
 8
Layer0
10
96.0876142900872
20
2.06646659708765
30
0.0
11
97.0710678118655
21
2.92893218813452
31
0.0
  0
LINE
 8
Layer0
10
7.41180954897479
20
0.340741737109318
30
0.0
11
8.69473807779949
21
0.085551386261896
31
0.0
  0
LINE
 8
Layer0
10
90.0
20
0.0
30
0.0
11
10.0
21
1.40998324127395e-015
31
0.0
  0
LINE
 8
Layer0
10
99.9144486137381
20
8.69473807779947
30
0.0
11
100.0
21
9.99999999999999
31
0.0
  0
LINE
 8
Layer0
10
98.6602540378444
20
4.99999999999999
30
0.0
11
99.2387953251129
21
6.1731656763491
31
0.0
  0
LINE
 8
Layer0
10
97.9335334029123
20
3.91238570991279
30
0.0
11
98.6602540378444
21
4.99999999999999
31
0.0
  0
LINE
 8
Layer0
10
99.6592582628907
20
7.41180954897478
30
0.0
11
99.9144486137381
21
8.69473807779947
31
0.0
  0
LINE
 8
Layer0
10
99.2387953251129
20
6.1731656763491
30
0.0
11
99.6592582628907
21
7.41180954897478
31
0.0
  0
LINE
 8
Layer0
10
7.47279517580636
20
45.6031555328122
30
0.0
11
7.47279517580636
21
15.6031555328122
31
0.0
  0
LINE
 8
Layer0
10
7.47279517580636
20
15.6031555328122
30
0.0
11
92.4727951758064
21
15.6031555328122
31
0.0
  0
LINE
 8
Layer0
10
92.4727951758064
20
45.6031555328122
30
0.0
11
7.47279517580636
21
45.6031555328122
31
0.0
  0
LINE
 8
Layer0
10
92.4727951758064
20
15.6031555328122
30
0.0
11
92.4727951758064
21
45.6031555328122
31
0.0
  0
LINE
 8
Layer0
10
10.0
20
100.0
30
0.0
11
8.69473807779949
21
99.9144486137381
31
0.0
  0
LINE
 8
Layer0
10
99.9144486137381
20
91.3052619222005
30
0.0
11
99.6592582628907
21
92.5881904510252
31
0.0
  0
LINE
 8
Layer0
10
99.6592582628907
20
92.5881904510252
30
0.0
11
99.2387953251129
21
93.8268343236509
31
0.0
  0
LINE
 8
Layer0
10
100.0
20
90.0
30
0.0
11
99.9144486137381
21
91.3052619222005
31
0.0
  0
LINE
 8
Layer0
10
99.2387953251129
20
93.8268343236509
30
0.0
11
98.6602540378444
21
95.0
31
0.0
  0
LINE
 8
Layer0
10
98.6602540378444
20
95.0
30
0.0
11
97.9335334029123
21
96.0876142900872
31
0.0
  0
LINE
 8
Layer0
10
97.9335334029123
20
96.0876142900872
30
0.0
11
97.0710678118655
21
97.0710678118655
31
0.0
 0
ENDSEC
 0
EOF
