 0
SECTION
 2
ENTITIES
  0
POLYLINE
 8
Layer0
 66
     1
70
    8
 10
0.0
 20
 0.0
 30
0.0
  0
VERTEX
  8
MY3DLAYER
10
5.49999999999994
20
74.6
30
0.0
 70
     32
  0
VERTEX
  8
MY3DLAYER
10
8.09999999999994
20
74.6
30
-1.42389107952935e-033
 70
     32
  0
VERTEX
  8
MY3DLAYER
10
8.09999999999994
20
57.2
30
0.0
 70
     32
  0
VERTEX
  8
MY3DLAYER
10
5.49999999999994
20
57.2
30
0.0
 70
     32
  0
VERTEX
  8
MY3DLAYER
10
5.49999999999994
20
74.6
30
0.0
 70
     32
  0
SEQEND
  0
POLYLINE
 8
Layer0
 66
     1
70
    8
 10
0.0
 20
 0.0
 30
0.0
  0
VERTEX
  8
MY3DLAYER
10
100.0
20
87.5197743953503
30
1.27179142365365e-031
 70
     32
  0
VERTEX
  8
MY3DLAYER
10
100.0
20
75.6892000000001
30
8.06697162039404e-032
 70
     32
  0
VERTEX
  8
MY3DLAYER
10
93.5957652641737
20
75.6892000000001
30
6.56357533449927e-032
 70
     32
  0
VERTEX
  8
MY3DLAYER
10
93.5957652641737
20
75.5403000000001
30
6.56357533449927e-032
 70
     32
  0
VERTEX
  8
MY3DLAYER
10
93.5957652641737
20
57.5411375142085
30
6.56357533449927e-032
 70
     32
  0
VERTEX
  8
MY3DLAYER
10
100.0
20
57.5411375142085
30
5.33433419083083e-032
 70
     32
  0
VERTEX
  8
MY3DLAYER
10
100.0
20
44.2
30
1.19260765642376e-032
 70
     32
  0
VERTEX
  8
MY3DLAYER
10
99.9503049724592
20
43.536805597836
30
1.62830152994374e-032
 70
     32
  0
VERTEX
  8
MY3DLAYER
10
99.8585203507683
20
42.8781159941189
30
2.08594823696399e-032
 70
     32
  0
VERTEX
  8
MY3DLAYER
10
99.725017971941
20
42.2265996661029
30
2.56369376336119e-032
 70
     32
  0
VERTEX
  8
MY3DLAYER
10
99.5503386795847
20
41.5848960307339
30
3.05960267086016e-032
 70
     32
  0
VERTEX
  8
MY3DLAYER
10
99.3351901328392
20
40.9556047518676
30
3.57166593786352e-032
 70
     32
  0
VERTEX
  8
MY3DLAYER
10
99.0804439395149
20
40.3412752085354
30
4.09780909838148e-032
 70
     32
  0
VERTEX
  8
MY3DLAYER
10
98.7871321250434
20
39.7443961669236
30
4.63590064608939e-032
 70
     32
  0
VERTEX
  8
MY3DLAYER
10
98.4564429515453
20
39.1673856979068
30
5.18376066946646e-032
 70
     32
  0
VERTEX
  8
MY3DLAYER
10
98.0897161039535
20
38.6125813809811
30
5.73916968303328e-032
 70
     32
  0
VERTEX
  8
MY3DLAYER
10
97.6884372626947
20
38.082230834284
30
6.29987761891092e-032
 70
     32
  0
VERTEX
  8
MY3DLAYER
10
97.2542320849135
20
37.5784826090643
30
6.86361294227523e-032
 70
     32
  0
VERTEX
  8
MY3DLAYER
10
96.7888596186261
20
37.1033774854912
30
7.42809185377772e-032
 70
     32
  0
VERTEX
  8
MY3DLAYER
10
96.2942051764804
20
36.6588402050641
30
7.99102754165252e-032
 70
     32
  0
VERTEX
  8
MY3DLAYER
10
95.7722726979953
20
36.2466716731182
30
8.5501394460271e-032
 70
     32
  0
VERTEX
  8
MY3DLAYER
10
95.2251766312194
20
35.868541663013
30
9.1031624979054e-032
 70
     32
  0
VERTEX
  8
MY3DLAYER
10
94.655133366698
20
35.5259820515616
30
9.64785629539452e-032
 70
     32
  0
VERTEX
  8
MY3DLAYER
10
94.0644522584527
20
35.2203806131061
30
1.01820141800002e-031
 70
     32
  0
VERTEX
  8
MY3DLAYER
10
93.4555262683474
20
34.9529753973787
30
1.07034721762213e-031
 70
     32
  0
VERTEX
  8
MY3DLAYER
10
92.8308222717434
20
34.7248497139255
30
1.12101177582277e-031
 70
     32
  0
VERTEX
  8
MY3DLAYER
10
92.1928710637165
20
34.536927743414
30
1.16998984081052e-031
 70
     32
  0
VERTEX
  8
MY3DLAYER
10
91.5442571063234
20
34.3899707935995
30
1.21708299309971e-031
 70
     32
  0
VERTEX
  8
MY3DLAYER
10
90.8876080584527
20
34.2845742151235
30
1.26210044934565e-031
 70
     32
  0
VERTEX
  8
MY3DLAYER
10
90.2255841306776
20
34.2211649896336
30
1.30485983524433e-031
 70
     32
  0
VERTEX
  8
MY3DLAYER
10
89.5608673082353
20
34.2
30
1.34518792436553e-031
 70
     32
  0
VERTEX
  8
MY3DLAYER
10
9.55699999999994
20
34.2
30
1.27179142365365e-031
 70
     32
  0
VERTEX
  8
MY3DLAYER
10
8.91328465786015
20
34.2216811773685
30
1.23535599548032e-031
 70
     32
  0
VERTEX
  8
MY3DLAYER
10
8.27248700781073
20
34.2866264377758
30
1.19581117875207e-031
 70
     32
  0
VERTEX
  8
MY3DLAYER
10
7.63751151726559
20
34.3945414115523
30
1.15333621356375e-031
 70
     32
  0
VERTEX
  8
MY3DLAYER
10
7.01123626422765
20
34.5449369653114
30
1.1081236211462e-031
 70
     32
  0
VERTEX
  8
MY3DLAYER
10
6.39649989216639
20
34.7371314189857
30
1.06037833124808e-031
 70
     32
  0
VERTEX
  8
MY3DLAYER
10
5.79608874363576
20
34.9702536355983
30
1.01031675327517e-031
 70
     32
  0
VERTEX
  8
MY3DLAYER
10
5.21272423095012
20
35.243246969761
30
9.58165795397175e-032
 70
     32
  0
VERTEX
  8
MY3DLAYER
10
4.64905050116181
20
35.554874057006
30
9.0416183606795e-032
 70
     32
  0
VERTEX
  8
MY3DLAYER
10
4.10762245124982
20
35.9037224222404
30
8.48549652621001e-032
 70
     32
  0
VERTEX
  8
MY3DLAYER
10
3.59089414784159
20
36.2882108819048
30
7.91581311796311e-032
 70
     32
  0
VERTEX
  8
MY3DLAYER
10
3.10120770395672
20
36.7065967108158
30
7.33515027227371e-032
 70
     32
  0
VERTEX
  8
MY3DLAYER
10
2.64078266318932
20
37.1569835412101
30
6.74613989066895e-032
 70
     32
  0
VERTEX
  8
MY3DLAYER
10
2.21170593944639
20
37.6373299581846
30
6.1514517105608e-032
 70
     32
  0
VERTEX
  8
MY3DLAYER
10
1.81592235784095
20
38.1454587525762
30
5.55378120444423e-032
 70
     32
  0
VERTEX
  8
MY3DLAYER
10
1.4552258396142
20
38.6790667893385
30
4.9558373624492e-032
 70
     32
  0
VERTEX
  8
MY3DLAYER
10
1.13125127104172
20
39.235735446689
30
4.36033041362271e-032
 70
     32
  0
VERTEX
  8
MY3DLAYER
10
0.845467093178642
20
39.8129415787089
30
3.76995954159549e-032
 70
     32
  0
VERTEX
  8
MY3DLAYER
10
0.599168646031202
20
40.4080689517065
30
3.18740065031287e-032
 70
     32
  0
VERTEX
  8
MY3DLAYER
10
0.393472297322939
20
41.0184201025093
30
2.61529423528273e-032
 70
     32
  0
VERTEX
  8
MY3DLAYER
10
0.229310382467285
20
41.6412285649351
30
2.05623341531506e-032
 70
     32
  0
VERTEX
  8
MY3DLAYER
10
0.107426978681544
20
42.2736714090244
30
1.51275217900028e-032
 70
     32
  0
VERTEX
  8
MY3DLAYER
10
0.0283745323964456
20
42.9128820362003
30
9.87313899200048e-033
 70
     32
  0
VERTEX
  8
MY3DLAYER
10
-0.00748864475217581
20
43.5559631723589
30
4.82300167609624e-033
 70
     32
  0
VERTEX
  8
MY3DLAYER
10
0.0
20
44.2
30
8.68969262545175e-048
 70
     32
  0
VERTEX
  8
MY3DLAYER
10
-1.40998324127395e-015
20
87.5198993875383
30
1.27179142365365e-031
 70
     32
  0
VERTEX
  8
MY3DLAYER
10
0.0198755790456745
20
88.1731792312286
30
1.29031841935117e-031
 70
     32
  0
VERTEX
  8
MY3DLAYER
10
0.0794287938918321
20
88.8240425098179
30
1.30747271797376e-031
 70
     32
  0
VERTEX
  8
MY3DLAYER
10
0.178439349634163
20
89.4700815973863
30
1.32319086359241e-031
 70
     32
  0
VERTEX
  8
MY3DLAYER
10
0.316540993653736
20
90.1089067133089
30
1.33741471279043e-031
 70
     32
  0
VERTEX
  8
MY3DLAYER
10
0.493222870431953
20
90.7381547623585
30
1.35009164974338e-031
 70
     32
  0
VERTEX
  8
MY3DLAYER
10
0.707831411269979
20
91.355498076094
30
1.36117478085165e-031
 70
     32
  0
VERTEX
  8
MY3DLAYER
10
0.95957275192236
20
91.9586530232021
30
1.37062310820581e-031
 70
     32
  0
VERTEX
  8
MY3DLAYER
10
1.24751566920167
20
92.5453884569397
30
1.37840168124317e-031
 70
     32
  0
VERTEX
  8
MY3DLAYER
10
1.57059502569136
20
93.1135339684284
30
1.38448172603426e-031
 70
     32
  0
VERTEX
  8
MY3DLAYER
10
1.92761570982428
20
93.660987915273
30
1.3888407517213e-031
 70
     32
  0
VERTEX
  8
MY3DLAYER
10
2.31725705675217
20
94.1857251958037
30
1.39146263371473e-031
 70
     32
  0
VERTEX
  8
MY3DLAYER
10
2.73807773365265
20
94.685804740184
30
1.39233767334011e-031
 70
     32
  0
VERTEX
  8
MY3DLAYER
10
3.1885210714023
20
95.1593766906745
30
1.39146263371473e-031
 70
     32
  0
VERTEX
  8
MY3DLAYER
10
3.6669208228935
20
95.6046892444923
30
1.3888407517213e-031
 70
     32
  0
VERTEX
  8
MY3DLAYER
10
4.17150732669406
20
96.0200951339509
30
1.38448172603426e-031
 70
     32
  0
VERTEX
  8
MY3DLAYER
10
4.70041405324953
20
96.4040577199132
30
1.37840168124317e-031
 70
     32
  0
VERTEX
  8
MY3DLAYER
10
5.25168450941313
20
96.7551566760149
30
1.37062310820581e-031
 70
     32
  0
VERTEX
  8
MY3DLAYER
10
5.82327947576229
20
97.0720932426317
30
1.36117478085165e-031
 70
     32
  0
VERTEX
  8
MY3DLAYER
10
6.4130845499303
20
97.3536950311562
30
1.35009164974338e-031
 70
     32
  0
VERTEX
  8
MY3DLAYER
10
7.01891796804912
20
97.5989203608124
30
1.33741471279043e-031
 70
     32
  0
VERTEX
  8
MY3DLAYER
10
7.63853867537104
20
97.8068621119649
30
1.32319086359241e-031
 70
     32
  0
VERTEX
  8
MY3DLAYER
10
8.26965461621474
20
97.9767510816701
30
1.30747271797376e-031
 70
     32
  0
VERTEX
  8
MY3DLAYER
10
8.90993121257035
20
98.107958829055
30
1.29031841935117e-031
 70
     32
  0
VERTEX
  8
MY3DLAYER
10
9.55699999999993
20
98.2
30
1.27179142365365e-031
 70
     32
  0
VERTEX
  8
MY3DLAYER
10
89.5620112643932
20
98.2
30
1.34517988132389e-031
 70
     32
  0
VERTEX
  8
MY3DLAYER
10
90.2548259939096
20
98.1769881259026
30
1.09419759709781e-031
 70
     32
  0
VERTEX
  8
MY3DLAYER
10
90.944586730753
20
98.108053942122
30
8.60836128638138e-032
 70
     32
  0
VERTEX
  8
MY3DLAYER
10
91.6282529445384
20
97.9935013170419
30
6.46124155308146e-032
 70
     32
  0
VERTEX
  8
MY3DLAYER
10
92.3028109701129
20
97.8338352094382
30
4.51008147737572e-032
 70
     32
  0
VERTEX
  8
MY3DLAYER
10
92.9652872920766
20
97.6297594425726
30
2.76348195690831e-032
 70
     32
  0
VERTEX
  8
MY3DLAYER
10
93.6127616523185
20
97.3821736016737
30
1.229142167102e-032
 70
     32
  0
VERTEX
  8
MY3DLAYER
10
94.2423799227899
20
97.0921690684799
30
-8.61743775331588e-034
 70
     32
  0
VERTEX
  8
MY3DLAYER
10
94.8513666867699
20
96.7610242103265
30
-1.17666963760979e-032
 70
     32
  0
VERTEX
  8
MY3DLAYER
10
95.4370374731642
20
96.3901987449811
30
-2.03753660716763e-032
 70
     32
  0
VERTEX
  8
MY3DLAYER
10
95.9968105899068
20
95.9813273060709
30
-2.66498050340923e-032
 70
     32
  0
VERTEX
  8
MY3DLAYER
10
96.5282185043021
20
95.5362122374624
30
-3.05623549446041e-032
 70
     32
  0
VERTEX
  8
MY3DLAYER
10
97.028918720142
20
95.0568156483609
30
-3.20957689141805e-032
 70
     32
  0
VERTEX
  8
MY3DLAYER
10
97.4967041036498
20
94.545250764147
30
-3.12432875094142e-032
 70
     32
  0
VERTEX
  8
MY3DLAYER
10
97.9295126127341
20
94.0037726110802
30
-2.80086685487424e-032
 70
     32
  0
VERTEX
  8
MY3DLAYER
10
98.325436386665
20
93.4347680759308
30
-2.24061705376278e-032
 70
     32
  0
VERTEX
  8
MY3DLAYER
10
98.6827301561042
20
92.8407453843573
30
-1.44604898157225e-032
 70
     32
  0
VERTEX
  8
MY3DLAYER
10
98.9998189364165
20
92.2243230444114
30
-4.20665169307317e-033
 70
     32
  0
VERTEX
  8
MY3DLAYER
10
99.2753049703511
20
91.5882183039077
30
8.31014394474952e-033
 70
     32
  0
VERTEX
  8
MY3DLAYER
10
99.5079738894869
20
90.9352351725387
30
2.3034721882009e-032
 70
     32
  0
VERTEX
  8
MY3DLAYER
10
99.6968000672834
20
90.2682520615358
30
3.99021747903585e-032
 70
     32
  0
VERTEX
  8
MY3DLAYER
10
99.8409511401391
20
89.5902090953612
30
5.88381493464656e-032
 70
     32
  0
VERTEX
  8
MY3DLAYER
10
99.9397916765286
20
88.9040951513617
30
7.97591739884752e-032
 70
     32
  0
VERTEX
  8
MY3DLAYER
10
99.9928859780452
20
88.2129346845157
30
1.02573026866526e-031
 70
     32
  0
VERTEX
  8
MY3DLAYER
10
100.0
20
87.5197743953503
30
1.27179142365365e-031
 70
     32
  0
SEQEND
  0
POLYLINE
 8
Layer0
 66
     1
70
    8
 10
0.0
 20
 0.0
 30
0.0
  0
VERTEX
  8
MY3DLAYER
10
8.09999999999994
20
74.6
30
-1.42389107952935e-033
 70
     32
  0
VERTEX
  8
MY3DLAYER
10
5.49999999999994
20
74.6
30
0.0
 70
     32
  0
VERTEX
  8
MY3DLAYER
10
5.49999999999994
20
57.2
30
0.0
 70
     32
  0
VERTEX
  8
MY3DLAYER
10
8.09999999999994
20
57.2
30
0.0
 70
     32
  0
VERTEX
  8
MY3DLAYER
10
8.09999999999994
20
74.6
30
-1.42389107952935e-033
 70
     32
  0
SEQEND
  0
LINE
 8
Group#1
10
7.59999999999994
20
57.7
30
0.0
11
5.99999999999994
21
57.7
31
0.0
  0
LINE
 8
Group#1
10
5.99999999999994
20
74.1
30
0.0
11
7.59999999999994
21
74.1
31
0.0
  0
LINE
 8
Group#1
10
14.2999999999999
20
82.9
30
0.0
11
14.2999999999999
21
71.1535714285714
31
0.0
  0
LINE
 8
Group#1
10
14.2999999999999
20
48.9
30
0.0
11
85.6999999999999
21
48.9
31
0.0
  0
LINE
 8
Group#1
10
85.6999999999999
20
48.9
30
0.0
11
85.6999999999999
21
82.9
31
0.0
  0
LINE
 8
Group#1
10
85.6999999999999
20
82.9
30
0.0
11
14.2999999999999
21
82.9
31
0.0
  0
LINE
 8
Group#1
10
86.5999999999999
20
84.4
30
0.0
11
7.59999999999994
21
84.4
31
0.0
  0
LINE
 8
Group#1
10
7.59999999999994
20
84.4
30
0.0
11
7.59999999999994
21
74.1
31
0.0
  0
LINE
 8
Group#1
10
7.59999999999994
20
57.7
30
0.0
11
7.59999999999994
21
47.4
31
0.0
  0
LINE
 8
Group#1
10
7.59999999999994
20
47.4
30
0.0
11
86.5999999999999
21
47.4
31
0.0
  0
LINE
 8
Group#1
10
86.5999999999999
20
47.4
30
0.0
11
86.5999999999999
21
84.4
31
0.0
  0
LINE
 8
Group#1
10
5.99999999999994
20
57.7
30
0.0
11
5.99999999999994
21
74.1
31
0.0
  0
LINE
 8
Group#1
10
5.99999999999994
20
74.1
30
0.0
11
1.79999999999994
21
74.1
31
0.0
  0
LINE
 8
Group#1
10
1.79999999999994
20
57.7
30
0.0
11
5.99999999999994
21
57.7
31
0.0
  0
LINE
 8
Group#1
10
1.79999999999994
20
57.7
30
0.0
11
-1.00000000000005
21
58.3
31
0.0
  0
LINE
 8
Group#1
10
-1.00000000000005
20
58.3
30
0.0
11
-6.40000000000006
21
58.3
31
0.0
  0
LINE
 8
Group#1
10
-6.40000000000006
20
70.8
30
0.0
11
-6.40000000000006
21
58.3
31
0.0
  0
LINE
 8
Group#1
10
-6.40000000000006
20
70.8
30
0.0
11
-1.00000000000005
21
70.8
31
0.0
  0
LINE
 8
Group#1
10
-1.00000000000005
20
70.8
30
0.0
11
1.79999999999994
21
74.1
31
0.0
  0
LINE
 8
Group#1
10
7.59999999999994
20
74.1
30
0.0
11
11.7999999999999
21
74.1
31
0.0
  0
LINE
 8
Group#1
10
20.0
20
70.8
30
0.0
11
14.5999999999999
21
70.8
31
0.0
  0
LINE
 8
Group#1
10
7.59999999999994
20
57.7
30
0.0
11
7.59999999999994
21
74.1
31
0.0
  0
LINE
 8
Group#1
10
14.5999999999999
20
58.3
30
0.0
11
20.0
21
58.3
31
0.0
  0
LINE
 8
Group#1
10
14.5999999999999
20
70.8
30
0.0
11
14.2999999999999
21
71.1535714285714
31
0.0
  0
LINE
 8
Group#1
10
20.0
20
70.8
30
0.0
11
20.0
21
58.3
31
0.0
  0
LINE
 8
Group#1
10
11.7999999999999
20
57.7
30
0.0
11
7.59999999999994
21
57.7
31
0.0
  0
LINE
 8
Group#1
10
11.7999999999999
20
57.7
30
0.0
11
14.2999999999999
21
58.2357142857143
31
0.0
  0
LINE
 8
Group#1
10
14.2999999999999
20
58.2357142857143
30
0.0
11
14.2999999999999
21
48.9
31
0.0
  0
LINE
 8
Group#1
10
14.2999999999999
20
71.1535714285714
30
0.0
11
14.2999999999999
21
58.2357142857143
31
0.0
  0
LINE
 8
Group#1
10
14.2999999999999
20
71.1535714285714
30
0.0
11
11.7999999999999
21
74.1
31
0.0
  0
LINE
 8
Group#1
10
14.2999999999999
20
58.2357142857143
30
0.0
11
14.5999999999999
21
58.3
31
0.0
 0
ENDSEC
 0
EOF
