 0
SECTION
 2
ENTITIES
  0
POLYLINE
 8
Layer0
 66
     1
70
    8
 10
0.0
 20
 0.0
 30
0.0
  0
VERTEX
  8
MY3DLAYER
10
104.554526294176
20
0.654790693079379
30
-1.85438576238634e-033
 70
     32
  0
VERTEX
  8
MY3DLAYER
10
104.450191250843
20
0.530307220069336
30
-2.02797376363288e-033
 70
     32
  0
VERTEX
  8
MY3DLAYER
10
104.367914916486
20
0.449552002593831
30
-2.19461953081002e-033
 70
     32
  0
VERTEX
  8
MY3DLAYER
10
104.280380293742
20
0.374528738429251
30
-2.34752051433263e-033
 70
     32
  0
VERTEX
  8
MY3DLAYER
10
104.187985874215
20
0.305578962614249
30
-2.48598064953467e-033
 70
     32
  0
VERTEX
  8
MY3DLAYER
10
104.091152273188
20
0.243016561309438
30
-2.60936961210075e-033
 70
     32
  0
VERTEX
  8
MY3DLAYER
10
103.990320314826
20
0.187126342865723
30
-2.71712568754714e-033
 70
     32
  0
VERTEX
  8
MY3DLAYER
10
103.885949025368
20
0.138162741266044
30
-2.80875832836437e-033
 70
     32
  0
VERTEX
  8
MY3DLAYER
10
103.778513543462
20
0.0963486578431032
30
-2.88385038717996e-033
 70
     32
  0
VERTEX
  8
MY3DLAYER
10
103.668502957153
20
0.0618744465458111
30
-2.9420600157753e-033
 70
     32
  0
VERTEX
  8
MY3DLAYER
10
103.556418077357
20
0.0348970473743089
30
-2.98312222131155e-033
 70
     32
  0
VERTEX
  8
MY3DLAYER
10
103.442769157985
20
0.0155392719280512
30
-3.00685007267994e-033
 70
     32
  0
VERTEX
  8
MY3DLAYER
10
103.328073573059
20
0.00388924431970139
30
-3.01313555148478e-033
 70
     32
  0
VERTEX
  8
MY3DLAYER
10
103.212853461431
20
0.0
30
-3.00195004378519e-033
 70
     32
  0
VERTEX
  8
MY3DLAYER
10
9.55699999999995
20
0.0
30
1.31699994993883e-032
 70
     32
  0
VERTEX
  8
MY3DLAYER
10
8.91328465786016
20
0.0216811773684482
30
9.52645668205497e-033
 70
     32
  0
VERTEX
  8
MY3DLAYER
10
8.27248700781074
20
0.0866264377757663
30
5.57197500922994e-033
 70
     32
  0
VERTEX
  8
MY3DLAYER
10
7.6375115172656
20
0.194541411552319
30
1.32447849039845e-033
 70
     32
  0
VERTEX
  8
MY3DLAYER
10
7.01123626422765
20
0.344936965311349
30
-3.19678075135702e-033
 70
     32
  0
VERTEX
  8
MY3DLAYER
10
6.3964998921664
20
0.537131418985711
30
-7.97130974116924e-033
 70
     32
  0
VERTEX
  8
MY3DLAYER
10
5.79608874363576
20
0.770253635598301
30
-1.29774675384595e-032
 70
     32
  0
VERTEX
  8
MY3DLAYER
10
5.21272423095012
20
1.04324696976101
30
-1.81925633262592e-032
 70
     32
  0
VERTEX
  8
MY3DLAYER
10
4.64905050116182
20
1.35487405700596
30
-2.35929592591817e-032
 70
     32
  0
VERTEX
  8
MY3DLAYER
10
4.10762245124982
20
1.70372242224038
30
-2.91541776038767e-032
 70
     32
  0
VERTEX
  8
MY3DLAYER
10
3.59089414784159
20
2.08821088190474
30
-3.48510116863456e-032
 70
     32
  0
VERTEX
  8
MY3DLAYER
10
3.10120770395672
20
2.50659671081584
30
-4.06576401432397e-032
 70
     32
  0
VERTEX
  8
MY3DLAYER
10
2.64078266318933
20
2.95698354121008
30
-4.65477439592873e-032
 70
     32
  0
VERTEX
  8
MY3DLAYER
10
2.2117059394464
20
3.43732995818461
30
-5.24946257603688e-032
 70
     32
  0
VERTEX
  8
MY3DLAYER
10
1.81592235784096
20
3.94545875257615
30
-5.84713308215344e-032
 70
     32
  0
VERTEX
  8
MY3DLAYER
10
1.4552258396142
20
4.47906678933844
30
-6.44507692414848e-032
 70
     32
  0
VERTEX
  8
MY3DLAYER
10
1.13125127104172
20
5.03573544668904
30
-7.04058387297497e-032
 70
     32
  0
VERTEX
  8
MY3DLAYER
10
0.845467093178644
20
5.61294157870893
30
-7.63095474500219e-032
 70
     32
  0
VERTEX
  8
MY3DLAYER
10
0.599168646031203
20
6.2080689517065
30
-8.2135136362848e-032
 70
     32
  0
VERTEX
  8
MY3DLAYER
10
0.39347229732294
20
6.81842010250931
30
-8.78562005131495e-032
 70
     32
  0
VERTEX
  8
MY3DLAYER
10
0.229310382467288
20
7.4412285649351
30
-9.34468087128262e-032
 70
     32
  0
VERTEX
  8
MY3DLAYER
10
0.107426978681547
20
8.07367140902444
30
-9.88816210759739e-032
 70
     32
  0
VERTEX
  8
MY3DLAYER
10
0.0283745323964484
20
8.71288203620032
30
-1.04136003873976e-031
 70
     32
  0
VERTEX
  8
MY3DLAYER
10
-0.00748864475217299
20
9.35596317235889
30
-1.09186141189881e-031
 70
     32
  0
VERTEX
  8
MY3DLAYER
10
2.8199664825479e-015
20
10.0
30
-1.14009142865977e-031
 70
     32
  0
VERTEX
  8
MY3DLAYER
10
1.40998324127395e-015
20
53.3198993875383
30
1.31699994993883e-032
 70
     32
  0
VERTEX
  8
MY3DLAYER
10
0.0198755790456773
20
53.9731792312287
30
1.50226990691407e-032
 70
     32
  0
VERTEX
  8
MY3DLAYER
10
0.0794287938918349
20
54.6240425098179
30
1.67381289313996e-032
 70
     32
  0
VERTEX
  8
MY3DLAYER
10
0.178439349634165
20
55.2700815973863
30
1.83099434932639e-032
 70
     32
  0
VERTEX
  8
MY3DLAYER
10
0.316540993653738
20
55.908906713309
30
1.97323284130664e-032
 70
     32
  0
VERTEX
  8
MY3DLAYER
10
0.493222870431956
20
56.5381547623585
30
2.10000221083617e-032
 70
     32
  0
VERTEX
  8
MY3DLAYER
10
0.70783141126998
20
57.155498076094
30
2.21083352191879e-032
 70
     32
  0
VERTEX
  8
MY3DLAYER
10
0.959572751922362
20
57.7586530232021
30
2.30531679546047e-032
 70
     32
  0
VERTEX
  8
MY3DLAYER
10
1.24751566920167
20
58.3453884569397
30
2.38310252583404e-032
 70
     32
  0
VERTEX
  8
MY3DLAYER
10
1.57059502569136
20
58.9135339684284
30
2.44390297374493e-032
 70
     32
  0
VERTEX
  8
MY3DLAYER
10
1.92761570982428
20
59.460987915273
30
2.48749323061536e-032
 70
     32
  0
VERTEX
  8
MY3DLAYER
10
2.31725705675218
20
59.9857251958037
30
2.51371205054966e-032
 70
     32
  0
VERTEX
  8
MY3DLAYER
10
2.73807773365265
20
60.485804740184
30
2.52246244680341e-032
 70
     32
  0
VERTEX
  8
MY3DLAYER
10
3.1885210714023
20
60.9593766906746
30
2.51371205054966e-032
 70
     32
  0
VERTEX
  8
MY3DLAYER
10
3.66692082289351
20
61.4046892444923
30
2.48749323061536e-032
 70
     32
  0
VERTEX
  8
MY3DLAYER
10
4.17150732669406
20
61.8200951339509
30
2.44390297374493e-032
 70
     32
  0
VERTEX
  8
MY3DLAYER
10
4.70041405324954
20
62.2040577199132
30
2.38310252583404e-032
 70
     32
  0
VERTEX
  8
MY3DLAYER
10
5.25168450941313
20
62.5551566760149
30
2.30531679546046e-032
 70
     32
  0
VERTEX
  8
MY3DLAYER
10
5.8232794757623
20
62.8720932426317
30
2.21083352191879e-032
 70
     32
  0
VERTEX
  8
MY3DLAYER
10
6.41308454993031
20
63.1536950311562
30
2.10000221083617e-032
 70
     32
  0
VERTEX
  8
MY3DLAYER
10
7.01891796804913
20
63.3989203608124
30
1.97323284130664e-032
 70
     32
  0
VERTEX
  8
MY3DLAYER
10
7.63853867537105
20
63.606862111965
30
1.83099434932638e-032
 70
     32
  0
VERTEX
  8
MY3DLAYER
10
8.26965461621475
20
63.7767510816701
30
1.67381289313995e-032
 70
     32
  0
VERTEX
  8
MY3DLAYER
10
8.90993121257036
20
63.907958829055
30
1.50226990691406e-032
 70
     32
  0
VERTEX
  8
MY3DLAYER
10
9.55699999999995
20
64.0
30
1.31699994993883e-032
 70
     32
  0
VERTEX
  8
MY3DLAYER
10
109.562011264393
20
64.0
30
2.01999188976865e-032
 70
     32
  0
VERTEX
  8
MY3DLAYER
10
110.25482599391
20
63.9769881259026
30
-4.8983095249216e-033
 70
     32
  0
VERTEX
  8
MY3DLAYER
10
110.944586730753
20
63.908053942122
30
-2.82344563708885e-032
 70
     32
  0
VERTEX
  8
MY3DLAYER
10
111.628252944538
20
63.7935013170419
30
-4.97056537038877e-032
 70
     32
  0
VERTEX
  8
MY3DLAYER
10
112.302810970113
20
63.6338352094382
30
-6.92172544609451e-032
 70
     32
  0
VERTEX
  8
MY3DLAYER
10
112.965287292077
20
63.4297594425726
30
-8.66832496656192e-032
 70
     32
  0
VERTEX
  8
MY3DLAYER
10
113.612761652318
20
63.1821736016737
30
-1.02026647563682e-031
 70
     32
  0
VERTEX
  8
MY3DLAYER
10
114.24237992279
20
62.8921690684799
30
-1.15179813010034e-031
 70
     32
  0
VERTEX
  8
MY3DLAYER
10
114.85136668677
20
62.5610242103265
30
-1.260847656108e-031
 70
     32
  0
VERTEX
  8
MY3DLAYER
10
115.437037473164
20
62.1901987449812
30
-1.34693435306379e-031
 70
     32
  0
VERTEX
  8
MY3DLAYER
10
115.996810589907
20
61.7813273060709
30
-1.40967874268795e-031
 70
     32
  0
VERTEX
  8
MY3DLAYER
10
116.528218504302
20
61.3362122374624
30
-1.44880424179306e-031
 70
     32
  0
VERTEX
  8
MY3DLAYER
10
117.028918720142
20
60.8568156483609
30
-1.46413838148883e-031
 70
     32
  0
VERTEX
  8
MY3DLAYER
10
117.49670410365
20
60.345250764147
30
-1.45561356744117e-031
 70
     32
  0
VERTEX
  8
MY3DLAYER
10
117.929512612734
20
59.8037726110802
30
-1.42326737783445e-031
 70
     32
  0
VERTEX
  8
MY3DLAYER
10
118.325436386665
20
59.2347680759308
30
-1.3672423977233e-031
 70
     32
  0
VERTEX
  8
MY3DLAYER
10
118.682730156104
20
58.6407453843573
30
-1.28778559050425e-031
 70
     32
  0
VERTEX
  8
MY3DLAYER
10
118.999818936417
20
58.0243230444115
30
-1.18524720927775e-031
 70
     32
  0
VERTEX
  8
MY3DLAYER
10
119.275304970351
20
57.3882183039077
30
-1.06007925289953e-031
 70
     32
  0
VERTEX
  8
MY3DLAYER
10
119.507973889487
20
56.7352351725387
30
-9.12833473526932e-032
 70
     32
  0
VERTEX
  8
MY3DLAYER
10
119.696800067283
20
56.0682520615358
30
-7.44158944443438e-032
 70
     32
  0
VERTEX
  8
MY3DLAYER
10
119.840951140139
20
55.3902090953612
30
-5.54799198882367e-032
 70
     32
  0
VERTEX
  8
MY3DLAYER
10
119.939791676529
20
54.7040951513617
30
-3.45588952462271e-032
 70
     32
  0
VERTEX
  8
MY3DLAYER
10
119.992885978045
20
54.0129346845157
30
-1.17450423681762e-032
 70
     32
  0
VERTEX
  8
MY3DLAYER
10
120.0
20
53.3197743953503
30
1.28610731306627e-032
 70
     32
  0
VERTEX
  8
MY3DLAYER
10
120.0
20
16.8059482898297
30
-3.17684209573998e-032
 70
     32
  0
VERTEX
  8
MY3DLAYER
10
119.99570474488
20
16.6769937839614
30
-2.20870137600122e-032
 70
     32
  0
VERTEX
  8
MY3DLAYER
10
119.982244113799
20
16.5486718247683
30
-1.36148780331489e-032
 70
     32
  0
VERTEX
  8
MY3DLAYER
10
119.959686352416
20
16.4216330070719
30
-6.39496766924543e-033
 70
     32
  0
VERTEX
  8
MY3DLAYER
10
119.92814582902
20
16.2965214201418
30
-4.63887753862863e-034
 70
     32
  0
VERTEX
  8
MY3DLAYER
10
119.887782454676
20
16.1739713821499
30
4.14829102280632e-033
 70
     32
  0
VERTEX
  8
MY3DLAYER
10
119.838800872474
20
16.0546042241655
30
7.41818482492041e-033
 70
     32
  0
VERTEX
  8
MY3DLAYER
10
119.781449419987
20
15.9390251399943
30
9.32921522748952e-033
 70
     32
  0
VERTEX
  8
MY3DLAYER
10
119.71601887019
20
15.8278201178347
30
9.87169326931199e-033
 70
     32
  0
VERTEX
  8
MY3DLAYER
10
119.642840957239
20
15.7215529693055
30
9.04286857619547e-033
 70
     32
  0
VERTEX
  8
MY3DLAYER
10
119.562286694574
20
15.6207624709107
30
6.84694330540751e-033
 70
     32
  0
VERTEX
  8
MY3DLAYER
10
119.474764493867
20
15.5259596324316
30
3.29505084065671e-033
 70
     32
  0
VERTEX
  8
MY3DLAYER
10
119.380718094373
20
15.437625106098
30
-1.59480065437896e-033
 70
     32
  0
VERTEX
  8
MY3DLAYER
10
119.26335345598
20
15.3350034559634
30
-8.30083500535118e-033
 70
     32
  0
VERTEX
  8
MY3DLAYER
10
119.132542618405
20
15.2501849073175
30
-1.47810960212787e-032
 70
     32
  0
VERTEX
  8
MY3DLAYER
10
118.990964430176
20
15.1849064419613
30
-2.09028757552777e-032
 70
     32
  0
VERTEX
  8
MY3DLAYER
10
118.841518242205
20
15.1405048843053
30
-2.65408075257007e-032
 70
     32
  0
VERTEX
  8
MY3DLAYER
10
118.687264532568
20
15.1178895248147
30
-3.1579433274904e-032
 70
     32
  0
VERTEX
  8
MY3DLAYER
10
118.531362231603
20
15.1175234988355
30
-3.59155680113185e-032
 70
     32
  0
VERTEX
  8
MY3DLAYER
10
118.377004030809
20
15.1394143021391
30
-3.94604129138986e-032
 70
     32
  0
VERTEX
  8
MY3DLAYER
10
118.227351000377
20
15.1831136374186
30
-4.21413738251117e-032
 70
     32
  0
VERTEX
  8
MY3DLAYER
10
118.085467854267
20
15.2477265948777
30
-4.390354789192e-032
 70
     32
  0
VERTEX
  8
MY3DLAYER
10
117.836414978355
20
15.4339994055359
30
-4.4546741346944e-032
 70
     32
  0
VERTEX
  8
MY3DLAYER
10
115.978244250751
20
17.2921701331362
30
-4.41833347079593e-032
 70
     32
  0
VERTEX
  8
MY3DLAYER
10
102.717552516197
20
4.03033487252687
30
-4.18705189640293e-032
 70
     32
  0
VERTEX
  8
MY3DLAYER
10
104.450191250843
20
2.29784553783146
30
-8.39342004449681e-033
 70
     32
  0
VERTEX
  8
MY3DLAYER
10
104.64227722131
20
2.03668100868361
30
-6.30795446963018e-033
 70
     32
  0
VERTEX
  8
MY3DLAYER
10
104.71203435306
20
1.88999808912572
30
-5.36391564331102e-033
 70
     32
  0
VERTEX
  8
MY3DLAYER
10
104.762677072469
20
1.73566970129392
30
-4.50627497663855e-033
 70
     32
  0
VERTEX
  8
MY3DLAYER
10
104.793391827022
20
1.57617506134434
30
-3.74881008128138e-033
 70
     32
  0
VERTEX
  8
MY3DLAYER
10
104.803685197998
20
1.4140763789504
30
-3.10368929018642e-033
 70
     32
  0
VERTEX
  8
MY3DLAYER
10
104.793391827022
20
1.25197769655646
30
-2.58127617878154e-033
 70
     32
  0
VERTEX
  8
MY3DLAYER
10
104.762677072469
20
1.09248305660688
30
-2.18996307879637e-033
 70
     32
  0
VERTEX
  8
MY3DLAYER
10
104.71203435306
20
0.938154668775079
30
-1.93603625922673e-033
 70
     32
  0
VERTEX
  8
MY3DLAYER
10
104.64227722131
20
0.791471749217187
30
-1.82357494024982e-033
 70
     32
  0
VERTEX
  8
MY3DLAYER
10
104.554526294176
20
0.654790693079379
30
-1.85438576238634e-033
 70
     32
  0
SEQEND
 0
ENDSEC
 0
EOF
