 0
SECTION
 2
ENTITIES
  0
LINE
 8
Group#2
10
5.0
20
18.1
30
0.0
11
5.0
21
8.09999999999999
31
0.0
  0
LINE
 8
Group#2
10
-0.193
20
8.09999999999999
30
0.0
11
-0.906999999999998
21
8.09999999999999
31
0.0
  0
LINE
 8
Group#2
10
0.50000000000001
20
-7.75000000000002
30
0.0
11
-0.193
21
8.09999999999999
31
0.0
  0
LINE
 8
Group#2
10
-4.79299999999999
20
8.09999999999999
30
0.0
11
-5.0
21
8.09999999999999
31
0.0
  0
LINE
 8
Group#2
10
-5.0
20
8.09999999999999
30
0.0
11
-5.0
21
18.1
31
0.0
  0
LINE
 8
Group#2
10
-3.9
20
-7.75000000000002
30
0.0
11
-4.10000000000003
21
-7.75000000000002
31
0.0
  0
LINE
 8
Group#2
10
-0.906999999999998
20
8.09999999999999
30
0.0
11
-1.60000000000001
21
-7.75000000000002
31
0.0
  0
LINE
 8
Group#2
10
-2.493
20
8.09999999999999
30
0.0
11
-3.20700000000002
21
8.09999999999999
31
0.0
  0
LINE
 8
Group#2
10
-1.60000000000001
20
-7.75000000000002
30
0.0
11
-1.80000000000001
21
-7.75000000000002
31
0.0
  0
LINE
 8
Group#2
10
-3.20700000000002
20
8.09999999999999
30
0.0
11
-3.9
21
-7.75000000000002
31
0.0
  0
LINE
 8
Group#2
10
0.699999999999987
20
-7.75000000000002
30
0.0
11
0.50000000000001
21
-7.75000000000002
31
0.0
  0
LINE
 8
Group#2
10
-4.10000000000003
20
-7.75000000000002
30
0.0
11
-4.79299999999999
21
8.09999999999999
31
0.0
  0
LINE
 8
Group#2
10
-1.80000000000001
20
-7.75000000000002
30
0.0
11
-2.493
21
8.09999999999999
31
0.0
  0
LINE
 8
Group#2
10
-5.0
20
18.1
30
0.0
11
5.0
21
18.1
31
0.0
  0
LINE
 8
Group#2
10
2.54299999999998
20
-7.90000000000002
30
0.0
11
3.25700000000001
21
-7.90000000000002
31
0.0
  0
LINE
 8
Group#2
10
4.843
20
-7.90000000000002
30
0.0
11
5.0
21
-7.90000000000002
31
0.0
  0
LINE
 8
Group#2
10
3.94999999999999
20
7.94999999999999
30
0.0
11
4.14999999999999
21
7.94999999999999
31
0.0
  0
LINE
 8
Group#2
10
0.957000000000009
20
-7.90000000000002
30
0.0
11
1.64999999999997
21
7.94999999999999
31
0.0
  0
LINE
 8
Group#2
10
1.64999999999997
20
7.94999999999999
30
0.0
11
1.85
21
7.94999999999999
31
0.0
  0
LINE
 8
Group#2
10
5.0
20
-17.9
30
0.0
11
-5.0
21
-17.9
31
0.0
  0
LINE
 8
Group#2
10
-3.64299999999998
20
-7.90000000000002
30
0.0
11
-2.95000000000002
21
7.94999999999999
31
0.0
  0
LINE
 8
Group#2
10
0.243000000000011
20
-7.90000000000002
30
0.0
11
0.957000000000009
21
-7.90000000000002
31
0.0
  0
LINE
 8
Group#2
10
-2.95000000000002
20
7.94999999999999
30
0.0
11
-2.75
21
7.94999999999999
31
0.0
  0
LINE
 8
Group#2
10
-0.649999999999999
20
7.94999999999999
30
0.0
11
-0.449999999999999
21
7.94999999999999
31
0.0
  0
LINE
 8
Group#2
10
-2.75
20
7.94999999999999
30
0.0
11
-2.05700000000001
21
-7.90000000000002
31
0.0
  0
LINE
 8
Group#2
10
1.85
20
7.94999999999999
30
0.0
11
2.54299999999998
21
-7.90000000000002
31
0.0
  0
LINE
 8
Group#2
10
-2.05700000000001
20
-7.90000000000002
30
0.0
11
-1.34300000000001
21
-7.90000000000002
31
0.0
  0
LINE
 8
Group#2
10
-1.34300000000001
20
-7.90000000000002
30
0.0
11
-0.649999999999999
21
7.94999999999999
31
0.0
  0
LINE
 8
Group#2
10
-5.0
20
-17.9
30
0.0
11
-5.0
21
-7.90000000000002
31
0.0
  0
LINE
 8
Group#2
10
5.0
20
-7.90000000000002
30
0.0
11
5.0
21
-17.9
31
0.0
  0
LINE
 8
Group#2
10
3.25700000000001
20
-7.90000000000002
30
0.0
11
3.94999999999999
21
7.94999999999999
31
0.0
  0
LINE
 8
Group#2
10
-5.0
20
-7.90000000000002
30
0.0
11
-3.64299999999998
21
-7.90000000000002
31
0.0
  0
LINE
 8
Group#2
10
-0.449999999999999
20
7.94999999999999
30
0.0
11
0.243000000000011
21
-7.90000000000002
31
0.0
  0
LINE
 8
Group#2
10
4.14999999999999
20
7.94999999999999
30
0.0
11
4.843
21
-7.90000000000002
31
0.0
  0
LINE
 8
Group#2
10
5.0
20
8.09999999999999
30
0.0
11
3.69299999999999
21
8.09999999999999
31
0.0
  0
LINE
 8
Group#2
10
3.69299999999999
20
8.09999999999999
30
0.0
11
3.00000000000001
21
-7.75000000000002
31
0.0
  0
LINE
 8
Group#2
10
3.00000000000001
20
-7.75000000000002
30
0.0
11
2.79999999999998
21
-7.75000000000002
31
0.0
  0
LINE
 8
Group#2
10
2.79999999999998
20
-7.75000000000002
30
0.0
11
2.107
21
8.09999999999999
31
0.0
  0
LINE
 8
Group#2
10
2.107
20
8.09999999999999
30
0.0
11
1.393
21
8.09999999999999
31
0.0
  0
LINE
 8
Group#2
10
1.393
20
8.09999999999999
30
0.0
11
0.699999999999987
21
-7.75000000000002
31
0.0
 0
ENDSEC
 0
EOF
